<svg xmlns="http://www.w3.org/2000/svg" width="783.618" height="148.736" viewBox="0 0 207.33232 39.353004"><path d="M153.193 0c-2.747.101-4.3 1.163-4.956 4.367l.95.164c.637.11 1.118.354 1.453.74.442.506.487.717.378 1.757-.344 3.113-1.01 6.016-1.999 9.912-1 4.79-2.4 9.787-3.222 14.81-.521 2.002-.482 3.886.098 4.771.186.285.694.705 1.129.935 1.004.53 3.313.555 4.806.051 1.338-.451 3.7-1.723 3.7-1.992 0-.114-.165-.135-.37-.048-.204.087-.873.349-1.488.584l-1.116.426c-1.81.293-1.116-2.651-.615-4.926.239-.872.526-2.243.636-3.045.77-4.958 2.415-10.873 3.469-16.243 1.26-4.756 3.526-12.268-2.853-12.263zM71.157 1.068a4.571 4.571 0 0 0-1.657.321c-1.412.761-2.91 1.936-3.748 3.903-.233.73-.363 1.364-.29 1.409.073.045.75.193 1.503.329 2.92.525 3.361 1.087 3.415 4.337.033 2.013-.014 2.257-1.022 5.282-.581 1.743-1.17 3.645-1.309 4.227-.91 3.685-1.787 7.286-3.17 10.888-.387 1.194-1.847 3.303-3.072 4.554-.844.862-1.341 1.177-2.275 1.444-.658.188-1.484.341-1.837.341s-.7.092-.769.205c-.078.126.864.227 2.471.264 4.156.095 10.102-.049 10.102-.244 0-.251-.554-.436-1.308-.436-.955 0-2.222-1.095-2.512-2.17-.445-1.652.176-4.937 2.585-13.684.526-1.905 1.236-4.094 1.962-6.13.696-2.414.83-2.757 1.053-2.685.28.091.999 2.613 1.184 3.32.086.325.176.61.312 1.056 1.124 3.85 2.248 8.494 3.502 12.789.093.232.512 1.799.931 3.48.42 1.682.87 3.124 1 3.204.4.247.916-.022 1.286-.827 1.598-2.543 2.747-4.173 4.147-6.914 2.919-5.098 6.827-10.278 9.938-15.66.08-.123.24-.435.514-.692.736-.691.982-.25.748 1.344a48.295 48.295 0 0 0-.28 2.37c-.052.605-.237 1.842-.41 2.748-.566 2.958-.46 3.17-.767 4.742-1.07 2.583-1.254 9.745-2.64 11.366-.174.184-.552.63-.84.992-.337.423-.869.755-1.489.929-1.961.549-.927.702 5.087.755 6.444.057 8.354-.06 8.507-.521.073-.222-.037-.261-.446-.158-.883.18-2.375-.754-2.89-1.745-.434-.839-.425-1.48.071-4.78.726-4.654 1.654-9.696 2.627-14.795 1.071-4.073.004-7.33 5.099-9.47.708-.134 1.288-.318 1.288-.408 0-.188-.707-.206-6.34-.164-3.91.029-4.148.054-4.61.487-.447.467-1.47 3.752-2.368 4.619-.465.738-.908 1.485-.983 1.66-.093.176-.478.751-.845 1.321-.825 1.175-1.756 2.8-2.662 4.12-1.075 1.646-2.24 3.487-2.59 4.092-.898 1.494-2.184 3.148-3.138 4.862-.676 1.165-1.348 1.82-1.586 1.547-.093-.107-.476-1.432-.85-2.943a147.825 147.825 0 0 0-1.012-3.91c-.183-.64-.46-1.686-.617-2.325-.157-.64-.437-1.734-.624-2.431a45.33 45.33 0 0 1-.426-1.691 97.2 97.2 0 0 0-.41-1.797c-1.115-3.615-1.69-9.956-4.869-12.112-.795-.384-1.733-.627-2.67-.615zM132.81 7.21c-3.151.017-4.854 2.359-4.865 4.977 1.586.303 2.506.404 2.853 2.437-.012 1.666-.338 1.906-1.951 1.783-2.186-.04-2.406.332-2.406.332.037.59 1.246.55 2.154.55 1.602.007 1.764-.064 1.267 1.73-.047.324-.192.922-.322 1.329-.13.406-.324 1.31-.431 2.008a52.338 52.338 0 0 1-.392 2.219 412.16 412.16 0 0 0-.534 2.642c-.701 3.52-2.49 8.483 1.626 10.782 3.038.724 7.83-.937 9.912-3.795.158-.287-.03-.208-.627.265-1.191.926-2.353 1.71-3.939 1.725-2.096-.054-2.473-2.367-1.912-4.75.575-3.352 1.698-7.247 2.41-10.972.79-3.095.168-3.23 4.287-3.166 2.19.067 2.695.028 2.695-.209 0-.697-.649-.864-3.357-.868-2.546-.003-2.664-.023-2.603-.426.17-1.117.341-2.233.575-3.339.56-2.909-1.32-5.27-4.44-5.254zm59.706 7.42a4.893 4.893 0 0 0-4.412 3.366c-.562 1.78-.473 2.173.523 2.257 1.73.233 1.55.504 1.917 1.065.98 4.322-1.784 10.93-2.35 15.738.17.276 5.356.069 5.672-.226.893-3.108 1.448-6.691 2.035-9.793.485-2.565.795-3.656 1.322-4.65.75-1.42 2.72-3.617 3.122-3.483.139.046.373.438.522.87.465 1.353 1.25 2.183 2.319 2.452 1.533.386 2.947-.12 3.687-1.317.625-1.011.61-2.791-.032-3.734-2.002-2.941-5.69-1.93-8.495 2.33-.98 1.487-1.487 1.881-1.287 1.001.472-2.081.49-2.328.205-3.009-.973-1.931-2.862-2.839-4.748-2.867zm-77.383.501c-.681-.008-1.416.1-2.194.313-1.918.583-4.917 4.082-1.876 5.326 2.104.188 1.568 1.346 1.468 2.408l-.21 1.08c-.172.893-1.224 4.882-1.394 5.284-.746 1.816-1.133 4.513-.997 6.512.138.836.827 1.928 2.113 2.188 2.75.567 6.107-.369 8.025-2.412-.13-.043-.455.06-.724.228-.746.47-2.021.822-2.462.682-.218-.07-.568-.446-.779-.837-.67-5.45 5.144-11.99 3.043-18.239-.882-1.73-2.273-2.51-4.013-2.533zm60.208.465c-.118.002-.232.01-.347.02-.513-.019-1.341.012-2.582.12-3.14.34-5.873 2.165-8.018 4.317-1.924 1.94-3.084 4-3.37 5.986-.486 2.234-.264 5.184.65 7.202.668 1.92 4.1 4.046 6.066 4.425 1.126.185 3.777.084 5.016-.19 2.837-.628 5.194-2.019 7.276-4.291 1.434-1.565.837-1.441-.884.184-.96.907-2.1 1.731-3.016 2.181-2.143.913-4.611 1.18-6.354.112-2.311-1.818-3.606-7.066-2.583-9.166l3.388.109c5.247.04 9.195-.975 11.005-2.829 1.021-1.246 1.319-2.824.706-4.304-1.428-2.75-3.75-3.925-6.466-3.855a4.626 4.626 0 0 0-.487-.02zm-1.475.686c6.484 1.516 5.993 6.555-.276 8.743-1.923.85-5.786 1.308-6.241.76-.319-.384.69-3.024 1.704-5.12 1.02-2.107 3.063-4.094 4.438-4.338.128-.013.253-.029.375-.045zM19.432 18.83a185.1 185.1 0 0 0-.42.267c.034-.01.066-.02.098-.032.103-.036.336-.232.322-.235zM8.675 36.545c-.01 0-.041.031-.095.102-.417.547-.797 1.122-1.194 1.685l.024.01c.533-.39 1.34-1.8 1.265-1.797z" fill="#fff"/><path d="M22.871 5.88c-3.573.028-6.495 1.65-8.33 3.432-2.04 1.992-2.603 3.394-2.533 6.303.082 3.395 1.535 5.388 5.732 7.859.768.452 1.67.89 2.008.975 1.217.304 4.448 2.127 5.538 3.124.268.245.73.921 1.027 1.502.442.866.535 1.331.513 2.577-.061 3.57-2.714 6.232-6.81 6.834-3.554.521-6.251-.102-8.073-1.865-1.036-1.003-2.14-3.333-2.472-5.22a40.813 40.813 0 0 0-.505-2.432c-.24-.937-.257-.952-1.206-1.014-1.252-.081-3.275.67-4.059 1.509-.887.949-1.205 1.699-1.342 3.163.112 3.239 1.203 4.04 3.596 5.093.367.162 2.14.493 3.942.737s3.514.479 3.805.522c1.513.226 7.083.108 8.765-.185 3.567-.622 5.482-1.48 7.13-3.191 2.11-2.19 2.636-3.507 2.732-6.845 0-2.401-.904-3.836-2.034-5.695-1.077-1.638-2.625-2.233-4.062-2.957a40.918 40.918 0 0 0-1.75-.845 6.724 6.724 0 0 1-.846-.433c-.175-.114-1.03-.531-1.902-.927-2.003-.909-3.995-2.769-4.387-4.095-.41-1.389-.323-2.498.295-3.76 1.372-2.802 4.15-3.89 8.847-3.463 2.077.189 3.3.817 4.624 2.376 1.114 1.311 1.706 2.678 2.055 4.74.267 1.583.694 2.297 1.039 1.739.491-2.747 1.297-5.465 1.546-8.067l.109-1.202-2.15.078c-1.182.043-3.005-.017-4.052-.133-1.257-.138-4.063-.222-6.067-.218a12.068 12.068 0 0 0-.723-.016zM47.753 18.8c-1.113 0-1.979.178-2.478.27-3.71 1.25-6.322 4.65-3.997 8.208.947 1.363.924 1.434-.595 1.918-1.791.715-3.835 1.803-4.773 3.6-.444.92-.402 2.127.118 3.366.383.911 1.816 1.875 3.455 2.321 2.29.396 4.52-.022 6.686-.527 1.267-.257 1.786-.644 1.953-.778.507-.407.765-.017.765-.017.152.233.358.538.642.744.431.313.975.375 3.297.38 1.529.003 2.816-.032 2.86-.075.043-.044-.396-.389-.977-.765-.956-.538-1.49-1.534-2.112-2.19-.58-.609-1.055-1.254-1.056-1.433-.002-.179.497-1.082 1.107-2.007.836-1.268 1.277-1.737 1.786-1.902 1.28-.413.974-.521-1.486-.521-2.547 0-2.955.16-1.86.726.76.393.987 1.34.564 2.352-.167.4-.382.727-.478.727-.213 0-2.671-2.866-3.397-3.962-.29-.437-.721-1.01-.959-1.272-.26-.289-.353-.55-.234-.658.11-.098 1.007-.44 1.995-.759 2.111-.681 2.776-1.058 3.888-2.2 2.083-2.294-.326-4.895-2.518-5.26.016-.003.02 0 .03 0-.815-.185-1.562-.285-2.226-.286zm.297.383c.404-.01.796.06 1.15.223 1.418.838 1.515 3.32-.044 5.168-.915 1.086-2.492 2.282-3.007 2.282-.393 0-1.251-1.153-1.702-2.286-1.13-2.935 1.42-5.334 3.603-5.387zm-5.683 10.092a.4.4 0 0 1 .057 0c.192.017.362.19.738.578.373.386 1.383 1.605 2.244 2.71.861 1.104 1.832 2.32 2.158 2.703 1.106 1.508.007 2.158-1.178 2.4-1.964.302-4.1.949-5.7-.437-1.707-1.915-1.401-4.536-.25-6.285.407-.614 1.035-1.268 1.395-1.454.246-.127.402-.206.536-.215zm17.118 8.8z" fill="#f9c869"/></svg>