<svg xmlns="http://www.w3.org/2000/svg" width="512" height="512" viewBox="0 0 457.241 457.241"><g fill="#84b315"><path d="M186.054 109.788h104.319c11.669 0 21.165 9.491 21.165 21.155 0 9.68-6.572 17.775-15.464 20.285-1.476-.63-3.187-.667-4.703.167-.316.178-.525.457-.793.683-.064 0-.121.026-.199.026H186.054c-11.664 0-21.158-9.496-21.158-21.161 0-11.665 9.494-21.155 21.158-21.155zm105.531 53.003c-.399.016-.799.062-1.213.062H186.054c-2.017 0-3.985-.209-5.898-.572l-29.73 49.161v228.26c0 .383-.147.74-.225 1.112 3.493 5.687 31.992 16.426 84.103 16.426 55.728 0 84.473-12.294 84.473-17.538V211.348l-27.192-48.557zm16.531 266.303a5.374 5.374 0 0 1-3.802 5.133c-1.563.482-38.766 11.766-79.837 11.766-24.48 0-45.203-4.059-61.591-12.075a5.377 5.377 0 0 1-3.016-4.823v-179.71a5.38 5.38 0 0 1 2.392-4.472c.666-.447 6.913-4.337 20.905-4.337 13.079 0 28.77 3.292 46.634 9.78 11.785 4.295 23.019 6.466 33.381 6.466 18.76 0 29.778-7.159 33.643-10.225l2.584-2.038a5.397 5.397 0 0 1 5.68-.613 5.377 5.377 0 0 1 3.022 4.836l.005 180.312zM274.829.883c-10.367 1.942-18.319 7.165-23.653 15.534-13.229 20.73-5.046 53.612-4.678 55.003a5.35 5.35 0 0 0 4.981 4.037c.091 0 .147.005.226.005 2.283 0 4.337-1.444 5.066-3.617 3.023-8.703 15.302-12.294 26.131-15.455 4.703-1.369 9.136-2.671 12.699-4.356 9.219-4.367 15.412-21.37 12.499-34.315C305.001 3.955 292.75-2.492 274.829.883zm16.172 41.434c-2.802 1.323-6.835 2.509-11.107 3.752-8.299 2.426-17.932 5.245-24.956 10.814-1.069-10.162-1.091-24.698 5.298-34.703 3.722-5.822 9.139-9.333 16.561-10.725 2.579-.488 4.988-.735 7.14-.735 7.785 0 12.247 3.061 13.664 9.354 2.1 9.282-3.145 20.61-6.6 22.243z"/><path d="M286.431 56.501c-18.143 0-27.314 23.333-27.687 24.326a5.347 5.347 0 0 0 1.873 6.283 5.376 5.376 0 0 0 6.552-.194c.525-.426 1.312-.909 2.898-.909 2.688 0 6.059 1.339 9.05 2.525 1.88.746 3.664 1.454 5.334 1.858 2.341.566 5.327.65 6.903.65 1.568 0 4.561-.084 6.866-.656 4.23-1.045 10.707-5.622 11.831-12.53.715-4.41-.482-10.961-10.242-17.134-4.444-2.802-8.942-4.219-13.378-4.219zm9.201 23.444c-1.392.347-7.238.335-8.666-.006-1.114-.262-2.437-.813-3.906-1.401-2.693-1.071-5.863-2.326-9.229-2.929 3.192-4.357 7.565-8.357 12.601-8.357 2.366 0 4.929.861 7.616 2.557 3.648 2.3 5.653 4.667 5.381 6.321-.302 1.841-2.82 3.574-3.797 3.815zM156.628 39.577c-17.05 10.881-19.126 22.347-17.856 30.042 2.006 12.169 13.481 21.208 21.001 23.061 4.16 1.029 9.756 1.187 12.724 1.187 5.069 0 9.746-.431 12.835-1.176 3.05-.735 6.522-2.115 10.2-3.574 6.578-2.61 14.029-5.576 20.62-5.576 3.821 0 6.935 1.029 9.515 3.135 1.01.823 2.478 1.286 3.454 1.218 2.968.152 5.436-2.389 5.436-5.375 0-1.35-.499-2.583-1.322-3.528-3.864-6.515-28.104-45.182-57.571-45.182-6.635-.007-13.031 1.941-19.036 5.768zm59.392 33.208c-8.604.036-17.389 3.522-24.457 6.331-3.318 1.317-6.444 2.557-8.751 3.118-2.236.536-6.186.876-10.315.876-4.092 0-7.977-.335-10.149-.871-3.751-.924-11.73-6.834-12.966-14.362-1.344-8.168 6.344-14.966 13.031-19.233 4.305-2.751 8.638-4.09 13.239-4.09 16.078-.001 31.339 16.288 40.368 28.231z"/></g></svg>