<svg xmlns="http://www.w3.org/2000/svg" width="65" height="64" viewBox="0 0 65 64"><path d="M17.027 4.001s4.76 1.365 6.056 3.365c.471.725 1.08 1.725.397 3.277-.794 2.01-4.266 3.463-6.497.848-.635-.7-.824-2.033-.824-2.033-.096-1.84.003-2.392.868-5.457zm-8.604 7.507s4.907-.66 6.898.65c.722.476 1.519.985 1.679 2.842.08 2.16-2.517 4.884-5.61 3.386-.862-.387-1.57-1.532-1.57-1.532-.828-1.645-.958-2.191-1.397-5.346zM27.344.594s4.366 2.334 5.214 4.561c.308.809.692 1.914-.3 3.288-1.2 1.798-4.9 2.489-6.531-.536-.473-.818-.378-2.16-.378-2.16.292-1.82.505-2.338 1.995-5.153zm11.046.466s3.084 3.874 2.98 6.255c-.038.865-.123 2.032-1.58 2.9-1.813 1.175-5.483.343-5.783-3.081-.11-.939.51-2.134.51-2.134.989-1.553 1.39-1.946 3.874-3.94zM48.935 5s1.087 4.83-.044 6.928c-.41.762-.996 1.775-2.684 1.922-2.145.268-5.086-2.08-3.864-5.293.31-.892 1.388-1.698 1.388-1.698 1.567-.968 2.1-1.146 5.204-1.859zm8.119 7s-.222 4.946-1.866 6.672c-.596.627-1.428 1.45-3.095 1.147-2.14-.306-4.359-3.346-2.334-6.123.534-.78 1.786-1.273 1.786-1.273 1.767-.52 2.327-.552 5.51-.423zm-7.679 8c-9 2-14.795 8.508-14.795 8.508S28 21 17 19.5C26 10 39.375 9 49.375 20z" fill="#fff"/><path d="M32.792 29.595s-.61.58-1.326 1.127C15 20 3.438 25 1.078 25c.352-1.333.656-2.649 1.234-4 9.641-3 21.688 1 30.48 8.595zM25.797 38c.833-1 .66-.862 1.203-1.469C20 28.813 6 28 .354 30 .253 31.538.19 32.434.31 34.417 10.78 31.088 18 33 25.797 38zM1 39c.455 1.736.591 2.453 1.22 4.144 2.614-.657 10.554-3.8 20.023 2.48.586-.994.332-.624.757-1.476C16 37.558 7 37 1 39zm5.438 12c5.625-.623 9.094-.646 13.562 5.686v-.95C18 50 12 45.563 4.11 47.234c1.365 2.437.726 1.384 2.327 3.766zM28 63.747C28 57.309 32.523 29 64.336 26c-.445-2-.422-2-1.005-3.725-18-.297-37.572 10.292-43.572 39.146 3.241 1.38 5.633 1.98 8.241 2.326z" fill="#fff"/><path d="M37 63.783c0-13.58 10.148-27.76 27.852-29.119.148-1.478.148-2.266.07-3.664C48.219 29 31 43.26 29 63.89c5.578.326 6.5.11 8-.107z" fill="#fff"/><path d="M45.703 61.287c2-9.553 8.649-15.783 17.2-17.836.31-1.048.634-1.63.973-3.202C51.563 39 40 49.406 38 63.586c5.25-.914 6.75-1.911 7.703-2.299z" fill="#fff"/><path d="M60 49.37s-5 7.409-11.781 10.763C50.569 50 60 49.37 60 49.37z" fill="#fff"/></svg>