<svg xmlns="http://www.w3.org/2000/svg" width="316.416" height="70" viewBox="0 0 316.41562 70"><path d="M11.117 27.041c4.274-.033 4.72-.02 9.662.066 3.704 14.242 7.193 28.359 10.763 42.642l-7.46-.03C23.294 65.836 22.655 63.563 21 58H10c-1.499 7-1.193 5.672-2.632 11.734L0 69.719c4.39-13.95 6.414-30.3 11.117-42.678zM20 50.71c-.5-2.287-3.705-16.96-4.23-16.96-.523 0-3.315 14.664-3.77 16.96 3.838-.07 3.895.048 8 0zm22.19 17.222c-5.106-3.194-6.906-8.251-6.913-19.182-.005-7.675.391-10.257 2.063-13.443 3.312-6.314 7.411-8.587 15.427-8.587 3.94 0 6.37.829 7.735 1.69-.671 3.292-.659 3.03-1.502 6.016-14.381-3.332-16.587 6.436-16.71 14.324.024 8.631.71 14.017 6.229 13.72 4.475-.24 4.965 1.06 4.986-4.673 0-4.7-.034-1.497-.02-5.796-2.206.016-4.527.04-4.526-.031L49 46.375h11.502V68c-.625.386-4.91 1.699-8.555 1.675-5.544-.037-7.151-.115-9.756-1.744zm25.706-41.213l7.487.031c9.291.039 12.773 2.606 14.407 7.558 1.522 4.612 1.724 12.148-3.826 15.663 2.012 6.936 4.159 10.537 6.763 19.744-3.912-.008-4.437-.002-7.456.028l-3.358-10.339a524.94 524.94 0 0 0-2.385-7.205C79.381 51.768 77 52 75 52v17.719l-3.77.03h-3.46zM81 45c2.067-2.5 2.438-6.757.549-9.896-1.085-1.686-3.132-1.376-6.549-1.376v12.67c3.421.02 3.485.024 6-1.398zm23.19 22.864c-5.157-3.146-6.915-8.13-6.917-19.615-.002-11.483 1.755-16.466 6.918-19.614 4.676-2.852 11.67-2.522 15.54.733 4.48 3.771 6.139 7.648 6.755 15.797 1.117 14.771-4.674 24.588-14.5 24.58-2.847-.002-5.935-.747-7.795-1.881zm10.541-5.094c2.687-1.438 4.04-6.36 4.04-14.702 0-11.409-3.195-16.661-9.011-14.815-3.562 1.13-5.405 6.244-5.405 14.996 0 12.303 4.017 17.925 10.376 14.521zM136 62.766c4.531 0 4.625 6.953 0 6.953-4.583 0-4.724-6.953 0-6.953zm85.783-36h5.937l.05 42.983h-6zM220.137 14c3.2 3.258 2.024 1.984 3.863 4 .031 1.984.001 1.016 0 3.54-2.33-2.54-1.359-1.456-3.863-4.054zM226 18c2-2.205 1.57-1.756 3.752-4 .013 1.654-.014 1.55-.014 3.486-2.003 2.16-1.35 1.514-3.738 4.052V18zm-2-2c-3.18-3.31-1.375-1.472-3.829-3.992V8.402C222.565 11 221.7 10 223.989 12.525 224 14.566 224 13.699 224 16zm2 0v-3.517c3.166-3.483 1-1.088 3.734-4.088V12c-2.108 2.253-.913 1-3.734 4zm-5.828-9.496c0-2.504 0-1.504.024-4.077 3.11 3.366 1.47 1.573 3.804 4.077V10c-3-3-1.498-1.424-3.828-4zm5.828 0c2.22-2.388 1-1.102 3.734-4.098V6c-2.276 2.337-1.352 1.402-3.734 4zM225 0c2.066 2 .603.594 2.477 2.406-2.12 2.218-.295.305-2.477 2.594-2.055-2.129-.633-.679-2.508-2.594z" fill="#fecb01"/><path d="M153.888 68.119c-4.29-3.005-4.91-6.96-4.898-24.775l.01-16.578c2.333-.025 4.667-.01 7 0C156.469 53.688 154 62 162.34 62c7.43-.022 5.284-9 5.66-35.234h7l-.01 16.965c-.012 19.269-1.385 22.018-6.293 24.557-3.808 1.969-11.888 1.876-14.81-.17zm28.894-41.353c4.55.04 4.665.018 9.218 0l6.762 15.483 6.509 15c.184-10.207-.017-20.276.167-30.483 3.158.005 4.562 0 7.562 0 .02 14.422-.371 28.73-.189 43.09-4.4.007-4.97.003-9.892-.043l-6.486-15.036-6.162-14.473c-.185 9.815.25 19.542.065 29.357-2.521.086-5.043.088-7.565.088zm59.989 6.983c-4.69-.02-2.771-.021-7.989-.021l-.011-6.979h24l-.047 6.979c-4.32 0-3.654.021-7.953.021v36h-8zm21 14.5v-21.5h19v7h-11v10h10v7h-10v12h11v7h-19zm26 .126V26.749l6.75.022c9.208.03 14.401 2.457 17.441 8.153 3.238 6.066 3.279 20.325.076 26.422-3.198 6.09-6.354 7.709-16.017 8.219l-8.25.435V48.375zM304 62c2.888-1.545 5-3 4.992-13.729C308.984 38 307 36 304 34.498c-2.486-.77-2.363-.615-7-.77-.024 16.188 0 21.936 0 29.038 5.437 0 5.608-.354 7-.766z" fill="#7c584c"/></svg>