<svg xmlns="http://www.w3.org/2000/svg" width="9.619" height="21.539" viewBox="0 0 9.6187691 21.539049"><path d="M4.863 0L2.355 2.406C4.23 4.321 2.81 2.871 4.863 5c2.183-2.29.357-.376 2.477-2.594C5.467.594 6.93 2 4.863 0zm4.735 2.406c-2.735 2.996-1.514 1.71-3.735 4.098V10c2.382-2.598 1.459-1.663 3.735-4zm-9.54.02c-.02 2.258-.02 2.041-.02 3.578C2.358 8.57.865 7.003 3.862 10V6.504C1.53 4 3.168 5.792.06 2.426zm-.02 3.578C.034 6.002.037 6.002.034 6v.504c0-.307.002-.285.002-.5zm9.56 2.39c-2.735 3-.569.607-3.735 4.09V16c2.82-3 1.626-1.747 3.735-4zm-9.563.008v3.606c2.454 2.52.648.681 3.828 3.992 0-2.3 0-1.433-.011-3.475C1.564 10.001 2.427 11 .035 8.402zM0 14v3.486C2.505 20.084 1.533 19 3.863 21.54c.001-2.523.031-1.555 0-3.539-1.84-2.016-.663-.742-3.863-4zm9.615 0c-2.183 2.244-1.752 1.795-3.752 4v3.537c2.388-2.538 1.735-1.89 3.739-4.05 0-1.937.026-1.833.013-3.487z" fill="#fecb01"/></svg>