<svg xmlns="http://www.w3.org/2000/svg" viewBox="0 0 297 297" width="512" height="512"><path d="M112.852 78.557c22.965 0 43.608 6.259 58.603 16.508l12.286-11.864c13.492-13.031 13.868-34.611.839-48.105-6.313-6.536-14.794-10.223-23.88-10.382-9.053-.129-17.688 3.23-24.224 9.543a9.166 9.166 0 0 1-.176.163c-1.111 1.025-3.351 3.584-4.64 6.551 12.097.656 23.328 5.769 31.789 14.53a6.917 6.917 0 0 1-.171 9.782 6.917 6.917 0 0 1-9.782-.171c-6.313-6.536-14.793-10.224-23.878-10.382-9.089-.194-17.688 3.229-24.226 9.542a33.96 33.96 0 0 0-9.149 15.396 124.815 124.815 0 0 1 16.609-1.111zm174.264 68.233H9.884c-5.458 0-9.884 4.426-9.884 9.884v53.865c0 5.458 4.426 9.884 9.884 9.884 13.577 0 20.704-3.048 26.991-5.738 5.415-2.316 9.69-4.145 19.218-4.145 9.527 0 13.805 1.829 19.219 4.145 6.287 2.69 13.414 5.738 26.992 5.738 13.576 0 20.702-3.049 26.989-5.738 5.413-2.316 9.688-4.145 19.214-4.145 9.526 0 13.802 1.829 19.215 4.145 6.287 2.689 13.413 5.738 26.989 5.738 13.577 0 20.703-3.049 26.99-5.738 5.412-2.316 9.688-4.145 19.214-4.145 9.524 0 13.8 1.829 19.213 4.145 6.287 2.689 13.412 5.738 26.988 5.738 5.458 0 9.884-4.426 9.884-9.884v-53.865c0-5.458-4.426-9.884-9.884-9.884zm-46.201 77.586c-6.69 0-8.91.95-13.777 3.033-6.76 2.892-16.019 6.851-32.427 6.851s-25.666-3.959-32.434-6.854c-4.86-2.08-7.079-3.03-13.77-3.03-6.69 0-8.91.95-13.777 3.033-6.76 2.892-16.018 6.851-32.426 6.851-16.416 0-25.675-3.961-32.435-6.853-4.863-2.081-7.083-3.031-13.776-3.031-6.692 0-8.911.95-13.775 3.03-4.674 1.999-10.545 4.508-19.148 5.868l9.886 32.045a9.882 9.882 0 0 0 9.444 6.971h212.002a9.882 9.882 0 0 0 9.444-6.971l9.886-32.046c-8.598-1.359-14.469-3.866-19.148-5.867-4.861-2.079-7.08-3.03-13.769-3.03zM91.189 113.335c-.308-9.936 8.179-17.881 18.666-18.247 10.487-.366 19.347 7.27 19.655 17.206.116 3.756 3.178 6.73 6.912 6.73.063 0 .127 0 .19-.002a6.92 6.92 0 0 0 6.729-7.104c-.166-6.135-1.61-11.591-4.19-16.203 23.583 6.195 40.82 20.43 42.964 37.238H40.318c1.913-9.154 8.253-17.853 18.381-25.009 6.376-4.505 13.834-8.102 21.996-10.704-2.347 4.76-3.505 10.307-3.337 16.471a6.917 6.917 0 0 0 6.911 6.731c.064 0 .128-.002.192-.004 3.82-.102 6.847-3.283 6.728-7.103zm133.013 1.885a6.92 6.92 0 0 1-9.785 0c-6.426-6.426-14.969-9.964-24.056-9.964-2.21 0-4.384.221-6.507.632 7.001 7.91 11.337 17.121 12.176 27.066h48.766l41.746-41.748c13.265-13.264 13.264-34.848-.001-48.111-6.425-6.426-14.968-9.965-24.056-9.965-9.087 0-17.63 3.539-24.054 9.964a9.034 9.034 0 0 1-.173.167c-1.097 1.047-3.298 3.652-4.532 6.65 11.65.434 23.172 5.076 32.047 13.951a6.92 6.92 0 0 1 0 9.785 6.92 6.92 0 0 1-9.785 0c-13.263-13.265-34.847-13.265-48.11.001a33.942 33.942 0 0 0-9.493 18.45c9.731 1.634 18.699 6.219 25.817 13.336a6.922 6.922 0 0 1 0 9.786z" fill="#84b315"/></svg>