<svg xmlns="http://www.w3.org/2000/svg" width="512" height="512" viewBox="0 0 475.695 475.696"><path fill="#84b315" d="M473.006 155.496l-51.252-53.468 22.307-14.227 1.302-11.088-10.347-.617-26.834 19.301-33.485.029-20.498-12.516-7.342 1.499.108 8.137 13.213 14.634-1.742 7.687-155.498 16.723-161.069-4.498-17.357 7.276-12.785 16.246-6.578 38-1.162 27.316L0 241.437l1.096 25.405 4.484.917 6.518-7.176 5.299-23.837-4.295-33.068 1.494-.225 10.096 50.342-6.877 43.69 6.279 87.196.598 9.656 6.119 5.22 27.055.042 8.718-2.637-24.205-39.417 12.008-50.056 6.289.011 21.943 66.553 11.311 17.086 5.58 3.435 29.865.022 3.832-4.795-25.853-15.881-17.529-53.984 4.394-8.764 10.297.956 6.465 15.83 9.365-15.43 9.074 15.496 7.686-16.826 22.623-17.39 80.279-7.688 13.474 16.473 11.356 80.53 5.974 11.571 27.354-.011 2.949-4.336-16.626-23.141-1.998-44.065 8.978 4.983 9.457 29.271 12.027 38.008 5.393 4.181 24.474.015 2.032-5.527-7.155-6.622-23.078-45.101 5.32-47.266 25.86-19.129 37.67-69.969 43.357-20.016 39.871-4.539 3.418-3.706 5.58-15.726z"/></svg>