<svg xmlns="http://www.w3.org/2000/svg" viewBox="0 0 512.001 512.001" width="512" height="512"><path d="M155.485 39.578C151.146 15.417 117.11 1.313 79.464 8.074 50.988 13.189 17.113 45.112 2.303 60.359-1.58 64.355-.389 71.003 4.646 73.4c19.191 9.141 62.056 27.281 90.533 22.167 37.645-6.761 64.645-31.829 60.306-55.989z" fill="#84b315"/><path d="M165.328 363.434c-9.963-28.292-8.74-58.696 3.445-85.612 12.408-27.412 34.633-47.929 62.58-57.77 5.681-2 11.595-3.508 17.698-4.524a149.077 149.077 0 0 1-6.553-43.679c0-35.761-23.659-65.988-56.175-75.907 7.858-13.653 24.012-37.24 47.788-50.257 4.164-2.28 6.036-7.27 4.385-11.721l-9.888-26.647c-2.102-5.664-8.874-7.996-14.027-4.808-16.921 10.471-49.408 37.193-54.595 90.062-42.362 1.659-76.2 36.507-76.2 79.276 0 35.036-12.254 68.753-34.692 95.66-21.465 25.74-34.378 58.858-34.378 94.994 0 81.973 66.453 148.425 148.426 148.425 24.845 0 48.259-6.113 68.834-16.904-7.208-9.05-14.28-19.325-21.159-30.776-20.646-34.353-36.132-73.24-45.489-99.812z" fill="#84b315"/><path d="M435.625 247.146c-15.219 0-31.031 3.867-45.058 10.915a85.866 85.866 0 0 1-16.681 6.308c6.72-11.926 21.325-33.899 43.162-45.855a8.517 8.517 0 0 0 3.9-10.426l-8.796-23.703c-1.873-5.048-7.904-7.106-12.477-4.276-15.776 9.762-46.754 35.419-49.044 87.086a86.18 86.18 0 0 1-37.359-9.146c-14.018-7.038-29.825-10.9-45.031-10.901-56.228-.001-89.244 55.223-71.622 105.269 13.606 38.643 59.678 158.514 121.199 158.514 4.941 0 9.973-.772 15.104-2.421 8.013-2.576 14.257-10.664 19.011-22.278 4.754 11.615 10.998 19.703 19.011 22.278 5.127 1.648 10.167 2.421 15.104 2.421 61.527 0 107.59-119.869 121.199-158.514 17.61-50.012-15.353-105.271-71.622-105.271z" fill="#84b315"/></svg>